<svg
    xmlns="http://www.w3.org/2000/svg"
    xmlns:xlink="http://www.w3.org/1999/xlink"
    width="116px" height="64px">
<defs>
<filter id="Filter_0">
    <feFlood flood-color="rgb(250, 125, 163)" flood-opacity="1" result="floodOut" />
    <feComposite operator="atop" in="floodOut" in2="SourceGraphic" result="compOut" />
    <feBlend mode="normal" in="compOut" in2="SourceGraphic" />
</filter>

</defs>
<g filter="url(#Filter_0)">
<path fill-rule="evenodd"  fill="rgb(51, 51, 51)"
    d="M115.598,47.366 L89.535,47.366 L88.570,47.366 L87.329,47.366 L87.329,0.630 L89.535,0.630 L89.535,45.361 L115.598,45.361 L115.598,47.366 ZM84.166,63.445 L82.757,63.445 L82.757,60.798 L80.503,57.117 L80.503,58.321 L78.519,58.321 L78.519,63.445 L77.109,63.445 L77.109,58.321 L75.124,58.321 L75.124,57.088 L80.485,57.088 L80.503,57.088 L82.119,57.088 L83.471,59.409 L84.822,57.088 L86.420,57.088 L84.166,60.742 L84.166,63.445 ZM73.505,26.694 C75.274,28.861 76.160,31.465 76.160,34.507 C76.160,37.089 75.539,39.346 74.298,41.282 C73.057,43.218 71.309,44.716 69.058,45.776 C66.805,46.837 64.139,47.366 61.060,47.366 L46.305,47.366 L45.202,47.366 L44.099,47.366 L44.099,0.630 L45.202,0.630 L46.305,0.630 L60.784,0.630 C63.449,0.630 65.759,1.091 67.713,2.012 C69.667,2.935 71.183,4.249 72.264,5.953 C73.343,7.659 73.884,9.710 73.884,12.106 C73.884,14.872 73.195,17.212 71.816,19.124 C70.703,20.668 69.166,21.825 67.244,22.633 C69.857,23.433 71.945,24.785 73.505,26.694 ZM69.058,19.262 C70.804,17.533 71.678,15.195 71.678,12.245 C71.678,9.249 70.689,6.898 68.713,5.193 C66.736,3.488 64.094,2.634 60.784,2.634 L46.305,2.634 L46.305,21.855 L61.887,21.855 C64.921,21.855 67.310,20.990 69.058,19.262 ZM62.232,23.721 L46.305,23.721 L46.305,45.361 L61.405,45.361 C65.173,45.361 68.196,44.371 70.471,42.388 C72.747,40.407 73.884,37.780 73.884,34.507 C73.884,32.387 73.390,30.521 72.402,28.907 C71.413,27.294 70.046,26.027 68.299,25.104 C66.552,24.183 64.530,23.721 62.232,23.721 ZM45.483,63.445 L44.073,63.445 L44.073,57.088 L45.483,57.088 L45.483,63.445 ZM41.738,63.445 L39.314,60.317 L39.314,63.445 L37.904,63.445 L37.904,57.088 L39.314,57.088 L39.314,59.955 L41.657,57.088 L43.399,57.088 L40.835,60.113 L43.489,63.445 L41.738,63.445 ZM33.459,63.445 L32.382,63.445 L32.382,57.088 L33.459,57.088 L33.792,57.088 L36.889,57.088 L36.889,58.304 L33.792,58.304 L33.792,59.609 L36.620,59.609 L36.620,60.788 L33.792,60.788 L33.792,62.220 L36.934,62.220 L36.934,63.445 L33.792,63.445 L33.459,63.445 ZM31.757,47.366 L3.006,23.656 L3.006,47.366 L0.800,47.366 L0.800,0.630 L3.006,0.630 L3.006,22.442 L31.137,0.630 L34.515,0.630 L5.571,23.017 L35.205,47.366 L31.757,47.366 ZM3.274,58.460 L6.622,54.364 L9.110,54.364 L5.446,58.685 L9.239,63.445 L6.737,63.445 L3.274,58.976 L3.274,63.445 L1.260,63.445 L1.260,54.364 L3.274,54.364 L3.274,58.460 ZM11.451,63.445 L10.042,63.445 L10.042,57.088 L11.451,57.088 L11.451,63.445 ZM14.082,57.088 L15.258,57.088 C15.677,57.088 16.045,57.168 16.363,57.327 C16.680,57.486 16.929,57.706 17.108,57.988 C17.288,58.270 17.378,58.595 17.378,58.961 C17.378,59.333 17.288,59.658 17.108,59.938 C16.929,60.217 16.677,60.435 16.354,60.590 C16.174,60.678 15.971,60.734 15.755,60.773 L17.749,63.391 L20.242,57.088 L21.517,57.088 L24.004,63.445 L22.514,63.445 L22.098,62.292 L19.613,62.292 L19.191,63.445 L17.791,63.445 L17.728,63.445 L16.120,63.445 L14.229,60.825 L14.082,60.825 L14.082,63.445 L12.672,63.445 L12.672,57.088 L13.750,57.088 L14.082,57.088 ZM21.682,61.140 L20.864,58.873 L20.035,61.140 L21.682,61.140 ZM14.082,59.780 L15.088,59.780 C15.369,59.780 15.586,59.708 15.739,59.564 C15.892,59.420 15.968,59.225 15.968,58.979 C15.968,58.751 15.893,58.562 15.743,58.412 C15.594,58.261 15.378,58.186 15.097,58.186 L14.082,58.186 L14.082,59.780 ZM27.923,60.586 L30.155,57.088 L31.170,57.088 L31.170,63.445 L29.760,63.445 L29.760,59.930 L28.386,62.076 L27.452,62.076 L26.079,59.918 L26.079,63.445 L24.678,63.445 L24.678,57.088 L25.683,57.088 L27.923,60.586 ZM51.391,54.364 L53.289,54.364 C53.871,54.364 54.365,54.471 54.771,54.685 C55.177,54.900 55.487,55.187 55.701,55.547 C55.915,55.907 56.022,56.306 56.022,56.743 C56.022,57.301 55.842,57.772 55.483,58.158 C55.325,58.327 55.121,58.463 54.898,58.587 C55.214,58.738 55.488,58.926 55.707,59.162 C56.122,59.607 56.330,60.156 56.330,60.808 C56.330,61.305 56.208,61.753 55.964,62.152 C55.720,62.551 55.369,62.866 54.912,63.097 C54.454,63.329 53.905,63.445 53.264,63.445 L51.391,63.445 L50.942,63.445 L49.403,63.445 L49.403,54.364 L50.942,54.364 L51.391,54.364 ZM51.391,61.875 L53.071,61.875 C53.464,61.875 53.772,61.760 53.995,61.528 C54.217,61.297 54.328,61.014 54.328,60.679 C54.328,60.448 54.277,60.242 54.174,60.062 C54.072,59.882 53.929,59.740 53.745,59.637 C53.561,59.534 53.336,59.483 53.071,59.483 L51.391,59.483 L51.391,61.875 ZM51.391,57.952 L52.905,57.952 C53.238,57.952 53.507,57.869 53.713,57.701 C53.918,57.534 54.020,57.279 54.020,56.936 C54.020,56.602 53.918,56.351 53.713,56.184 C53.507,56.016 53.238,55.933 52.905,55.933 L51.391,55.933 L51.391,57.952 ZM58.773,57.088 L61.871,57.088 L61.871,58.304 L58.773,58.304 L58.773,59.609 L61.602,59.609 L61.602,60.788 L58.773,60.788 L58.773,62.220 L61.916,62.220 L61.916,63.445 L58.773,63.445 L58.441,63.445 L57.363,63.445 L57.363,57.088 L58.441,57.088 L58.773,57.088 ZM66.199,57.088 L68.686,63.445 L67.196,63.445 L66.780,62.292 L64.295,62.292 L63.873,63.445 L62.410,63.445 L64.924,57.088 L66.199,57.088 ZM66.364,61.140 L65.546,58.873 L64.717,61.140 L66.364,61.140 ZM70.608,61.023 C70.608,61.275 70.662,61.494 70.769,61.680 C70.877,61.866 71.025,62.009 71.214,62.108 C71.402,62.207 71.610,62.256 71.838,62.256 C72.077,62.256 72.287,62.207 72.466,62.108 C72.646,62.009 72.788,61.868 72.893,61.685 C72.998,61.502 73.050,61.284 73.050,61.032 L73.050,57.088 L74.469,57.088 L74.469,60.951 C74.469,61.455 74.358,61.902 74.137,62.292 C73.915,62.682 73.607,62.988 73.212,63.211 C72.817,63.433 72.359,63.544 71.838,63.544 C71.317,63.544 70.858,63.433 70.460,63.211 C70.061,62.988 69.750,62.681 69.526,62.288 C69.301,61.895 69.189,61.446 69.189,60.941 L69.189,57.088 L70.608,57.088 L70.608,61.023 ZM91.860,61.670 L95.875,61.670 L95.875,63.445 L91.860,63.445 L91.398,63.445 L89.846,63.445 L89.846,54.364 L91.860,54.364 L91.860,61.670 ZM100.094,57.088 L102.582,63.445 L101.091,63.445 L100.675,62.292 L98.190,62.292 L97.769,63.445 L96.305,63.445 L98.819,57.088 L100.094,57.088 ZM100.259,61.140 L99.442,58.873 L98.612,61.140 L100.259,61.140 ZM104.647,57.088 L105.976,57.088 C106.383,57.088 106.728,57.163 107.013,57.313 C107.297,57.463 107.514,57.664 107.664,57.916 C107.813,58.168 107.888,58.448 107.888,58.754 C107.888,59.144 107.763,59.474 107.511,59.744 C107.401,59.862 107.258,59.958 107.102,60.044 C107.323,60.150 107.515,60.282 107.668,60.446 C107.959,60.758 108.104,61.143 108.104,61.599 C108.104,61.947 108.018,62.261 107.848,62.540 C107.677,62.819 107.432,63.039 107.112,63.202 C106.791,63.364 106.407,63.445 105.958,63.445 L104.647,63.445 L104.333,63.445 L103.255,63.445 L103.255,57.088 L104.333,57.088 L104.647,57.088 ZM104.647,62.346 L105.823,62.346 C106.098,62.346 106.314,62.265 106.470,62.103 C106.625,61.941 106.703,61.743 106.703,61.509 C106.703,61.347 106.667,61.203 106.595,61.077 C106.523,60.951 106.423,60.852 106.294,60.779 C106.166,60.708 106.009,60.671 105.823,60.671 L104.647,60.671 L104.647,62.346 ZM104.647,59.600 L105.706,59.600 C105.940,59.600 106.128,59.542 106.272,59.425 C106.416,59.307 106.487,59.129 106.487,58.889 C106.487,58.655 106.416,58.479 106.272,58.362 C106.128,58.245 105.940,58.186 105.706,58.186 L104.647,58.186 L104.647,59.600 ZM109.639,57.921 C109.939,57.624 110.290,57.393 110.694,57.228 C111.098,57.062 111.540,56.980 112.019,56.980 C112.492,56.980 112.930,57.062 113.334,57.228 C113.738,57.393 114.091,57.624 114.394,57.921 C114.696,58.218 114.931,58.566 115.099,58.965 C115.266,59.365 115.350,59.798 115.350,60.266 C115.350,60.728 115.266,61.159 115.099,61.558 C114.931,61.958 114.697,62.306 114.398,62.603 C114.099,62.900 113.747,63.133 113.343,63.301 C112.939,63.469 112.504,63.553 112.037,63.553 C111.558,63.553 111.116,63.469 110.712,63.301 C110.308,63.133 109.953,62.899 109.648,62.598 C109.343,62.298 109.106,61.949 108.939,61.549 C108.771,61.150 108.687,60.720 108.687,60.257 C108.687,59.789 108.771,59.357 108.939,58.961 C109.106,58.565 109.340,58.218 109.639,57.921 ZM110.268,61.077 C110.358,61.323 110.485,61.535 110.649,61.711 C110.814,61.888 111.013,62.025 111.247,62.121 C111.480,62.217 111.737,62.265 112.019,62.265 C112.396,62.265 112.727,62.181 113.011,62.013 C113.295,61.845 113.515,61.610 113.671,61.306 C113.826,61.003 113.904,60.654 113.904,60.257 C113.904,59.957 113.859,59.686 113.770,59.442 C113.680,59.199 113.551,58.989 113.384,58.812 C113.216,58.635 113.017,58.500 112.786,58.407 C112.556,58.314 112.300,58.267 112.019,58.267 C111.642,58.267 111.311,58.350 111.027,58.515 C110.742,58.680 110.522,58.911 110.367,59.208 C110.211,59.505 110.133,59.855 110.133,60.257 C110.133,60.558 110.178,60.831 110.268,61.077 Z"/>
</g>
</svg>