<svg
    xmlns="http://www.w3.org/2000/svg"
    xmlns:xlink="http://www.w3.org/1999/xlink"
    width="145px" height="79px">
<defs>
<filter id="Filter_0">
    <feFlood flood-color="rgb(255, 255, 255)" flood-opacity="1" result="floodOut" />
    <feComposite operator="atop" in="floodOut" in2="SourceGraphic" result="compOut" />
    <feBlend mode="normal" in="compOut" in2="SourceGraphic" />
</filter>

</defs>
<g filter="url(#Filter_0)">
<path fill-rule="evenodd"  fill="rgb(51, 51, 51)"
    d="M143.973,76.481 C143.762,76.976 143.469,77.407 143.094,77.776 C142.718,78.144 142.276,78.432 141.769,78.641 C141.262,78.849 140.715,78.953 140.129,78.953 C139.527,78.953 138.973,78.849 138.466,78.641 C137.958,78.432 137.513,78.142 137.130,77.770 C136.746,77.398 136.450,76.964 136.239,76.469 C136.029,75.974 135.924,75.441 135.924,74.867 C135.924,74.287 136.029,73.751 136.239,73.260 C136.450,72.768 136.743,72.339 137.119,71.970 C137.494,71.602 137.936,71.315 138.443,71.110 C138.951,70.906 139.505,70.803 140.106,70.803 C140.700,70.803 141.250,70.906 141.758,71.110 C142.265,71.315 142.708,71.602 143.088,71.970 C143.467,72.339 143.762,72.770 143.973,73.265 C144.183,73.760 144.289,74.298 144.289,74.878 C144.289,75.452 144.183,75.986 143.973,76.481 ZM142.305,73.857 C142.192,73.555 142.030,73.295 141.820,73.075 C141.609,72.856 141.359,72.688 141.070,72.573 C140.781,72.458 140.459,72.400 140.106,72.400 C139.633,72.400 139.217,72.503 138.860,72.707 C138.503,72.912 138.227,73.198 138.032,73.567 C137.836,73.935 137.739,74.369 137.739,74.867 C137.739,75.239 137.795,75.578 137.908,75.883 C138.020,76.189 138.180,76.451 138.387,76.670 C138.593,76.890 138.843,77.059 139.137,77.178 C139.430,77.297 139.753,77.357 140.106,77.357 C140.580,77.357 140.995,77.253 141.352,77.044 C141.709,76.836 141.985,76.544 142.181,76.168 C142.376,75.792 142.474,75.358 142.474,74.867 C142.474,74.495 142.417,74.159 142.305,73.857 ZM135.191,76.531 C135.191,76.963 135.084,77.351 134.869,77.697 C134.655,78.044 134.347,78.317 133.945,78.518 C133.543,78.719 133.060,78.819 132.496,78.819 L130.850,78.819 L130.456,78.819 L129.103,78.819 L129.103,70.937 L130.456,70.937 L130.850,70.937 L132.519,70.937 C133.030,70.937 133.464,71.031 133.821,71.217 C134.178,71.403 134.450,71.652 134.638,71.965 C134.826,72.277 134.920,72.623 134.920,73.003 C134.920,73.487 134.762,73.896 134.447,74.231 C134.310,74.376 134.139,74.498 133.946,74.604 C134.219,74.735 134.454,74.900 134.644,75.102 C135.009,75.489 135.191,75.965 135.191,76.531 ZM132.891,72.517 C132.710,72.372 132.474,72.300 132.181,72.300 L130.850,72.300 L130.850,74.052 L132.181,74.052 C132.474,74.052 132.710,73.980 132.891,73.835 C133.071,73.689 133.162,73.468 133.162,73.170 C133.162,72.880 133.071,72.662 132.891,72.517 ZM133.297,75.883 C133.207,75.727 133.081,75.604 132.919,75.515 C132.757,75.426 132.560,75.381 132.327,75.381 L130.850,75.381 L130.850,77.457 L132.327,77.457 C132.673,77.457 132.943,77.357 133.139,77.156 C133.334,76.955 133.432,76.709 133.432,76.419 C133.432,76.218 133.387,76.040 133.297,75.883 ZM125.864,77.390 L122.744,77.390 L122.215,78.819 L120.377,78.819 L123.534,70.937 L125.135,70.937 L128.257,78.819 L126.386,78.819 L125.864,77.390 ZM124.315,73.150 L123.274,75.961 L125.342,75.961 L124.315,73.150 ZM114.217,78.819 L112.268,78.819 L112.268,67.560 L114.797,67.560 L114.797,76.618 L119.837,76.618 L119.837,78.819 L114.797,78.819 L114.217,78.819 ZM105.137,78.819 L103.367,78.819 L103.367,75.538 L100.537,70.974 L100.537,72.467 L98.045,72.467 L98.045,78.819 L96.275,78.819 L96.275,72.467 L93.784,72.467 L93.784,70.937 L100.514,70.937 L100.537,70.937 L102.566,70.937 L104.263,73.816 L105.960,70.937 L107.966,70.937 L105.137,75.468 L105.137,78.819 ZM91.383,78.529 C90.887,78.805 90.312,78.942 89.658,78.942 C89.004,78.942 88.427,78.805 87.927,78.529 C87.427,78.254 87.037,77.872 86.755,77.385 C86.473,76.897 86.332,76.341 86.332,75.716 L86.332,70.937 L88.113,70.937 L88.113,75.816 C88.113,76.129 88.181,76.401 88.316,76.631 C88.451,76.862 88.637,77.039 88.874,77.162 C89.111,77.284 89.372,77.346 89.658,77.346 C89.958,77.346 90.221,77.284 90.447,77.162 C90.672,77.039 90.851,76.864 90.982,76.637 C91.114,76.410 91.180,76.140 91.180,75.827 L91.180,70.937 L92.961,70.937 L92.961,75.727 C92.961,76.352 92.822,76.907 92.544,77.390 C92.266,77.874 91.879,78.254 91.383,78.529 ZM83.307,77.390 L80.187,77.390 L79.658,78.819 L77.820,78.819 L80.977,70.937 L82.578,70.937 L85.701,78.819 L83.829,78.819 L83.307,77.390 ZM81.758,73.150 L80.717,75.961 L82.785,75.961 L81.758,73.150 ZM72.837,78.819 L71.484,78.819 L71.484,70.937 L72.837,70.937 L73.254,70.937 L77.144,70.937 L77.144,72.445 L73.254,72.445 L73.254,74.064 L76.806,74.064 L76.806,75.526 L73.254,75.526 L73.254,77.301 L77.200,77.301 L77.200,78.819 L73.254,78.819 L72.837,78.819 ZM70.186,75.550 C70.186,76.167 70.033,76.722 69.727,77.217 C69.421,77.711 68.981,78.102 68.407,78.389 C67.832,78.676 67.142,78.819 66.337,78.819 L63.986,78.819 L63.422,78.819 L61.489,78.819 L61.489,67.560 L63.422,67.560 L63.986,67.560 L66.369,67.560 C67.099,67.560 67.719,67.693 68.230,67.958 C68.739,68.224 69.129,68.580 69.397,69.027 C69.665,69.473 69.800,69.968 69.800,70.510 C69.800,71.201 69.574,71.786 69.123,72.265 C68.929,72.471 68.692,72.648 68.417,72.799 C68.805,72.986 69.135,73.222 69.405,73.509 C69.926,74.061 70.186,74.742 70.186,75.550 ZM66.901,69.816 C66.643,69.609 66.305,69.505 65.886,69.505 L63.986,69.505 L63.986,72.009 L65.886,72.009 C66.305,72.009 66.643,71.906 66.901,71.698 C67.159,71.491 67.287,71.175 67.287,70.749 C67.287,70.335 67.159,70.024 66.901,69.816 ZM67.481,74.625 C67.352,74.401 67.172,74.226 66.941,74.099 C66.710,73.971 66.428,73.907 66.096,73.907 L63.986,73.907 L63.986,76.874 L66.096,76.874 C66.589,76.874 66.976,76.730 67.255,76.443 C67.534,76.156 67.674,75.805 67.674,75.390 C67.674,75.103 67.609,74.848 67.481,74.625 ZM54.798,70.937 L56.568,70.937 L56.568,78.819 L54.798,78.819 L54.798,70.937 ZM51.867,78.819 L48.823,74.941 L48.823,78.819 L47.053,78.819 L47.053,70.937 L48.823,70.937 L48.823,74.493 L51.765,70.937 L53.952,70.937 L50.732,74.689 L54.065,78.819 L51.867,78.819 ZM41.472,78.819 L40.119,78.819 L40.119,70.937 L41.472,70.937 L41.889,70.937 L45.779,70.937 L45.779,72.445 L41.889,72.445 L41.889,74.064 L45.441,74.064 L45.441,75.526 L41.889,75.526 L41.889,77.301 L45.835,77.301 L45.835,78.819 L41.889,78.819 L41.472,78.819 ZM36.827,74.461 L35.102,77.122 L33.930,77.122 L32.205,74.447 L32.205,78.819 L30.446,78.819 L30.446,70.937 L31.709,70.937 L34.521,75.275 L37.323,70.937 L38.597,70.937 L38.597,78.819 L36.827,78.819 L36.827,74.461 ZM27.207,77.390 L24.088,77.390 L23.558,78.819 L21.800,78.819 L21.720,78.819 L19.702,78.819 L17.328,75.571 L17.143,75.571 L17.143,78.819 L15.373,78.819 L15.373,70.937 L16.726,70.937 L17.143,70.937 L18.620,70.937 C19.146,70.937 19.609,71.036 20.007,71.233 C20.405,71.431 20.717,71.704 20.943,72.054 C21.168,72.404 21.281,72.806 21.281,73.260 C21.281,73.721 21.168,74.125 20.943,74.471 C20.717,74.817 20.401,75.087 19.996,75.280 C19.769,75.388 19.518,75.463 19.247,75.511 L21.748,78.752 L24.877,70.937 L26.478,70.937 L29.601,78.819 L27.729,78.819 L27.207,77.390 ZM19.511,73.282 C19.511,72.999 19.417,72.765 19.229,72.579 C19.041,72.393 18.771,72.300 18.417,72.300 L17.143,72.300 L17.143,74.276 L18.406,74.276 C18.759,74.276 19.032,74.186 19.223,74.008 C19.415,73.829 19.511,73.587 19.511,73.282 ZM25.658,73.150 L24.617,75.961 L26.685,75.961 L25.658,73.150 ZM12.070,70.937 L13.840,70.937 L13.840,78.819 L12.070,78.819 L12.070,70.937 ZM7.921,78.819 L3.573,73.278 L3.573,78.819 L1.044,78.819 L1.044,67.560 L3.573,67.560 L3.573,72.639 L7.776,67.560 L10.901,67.560 L6.301,72.918 L11.062,78.819 L7.921,78.819 Z"/>
<path fill-rule="evenodd"  fill="rgb(51, 51, 51)"
    d="M144.600,58.883 L111.877,58.883 L110.666,58.883 L109.107,58.883 L109.107,0.933 L111.877,0.933 L111.877,56.397 L144.600,56.397 L144.600,58.883 ZM91.751,33.252 C93.972,35.939 95.084,39.166 95.084,42.938 C95.084,46.140 94.304,48.939 92.746,51.339 C91.188,53.740 88.994,55.598 86.167,56.912 C83.339,58.227 79.991,58.883 76.126,58.883 L57.600,58.883 L56.215,58.883 L54.830,58.883 L54.830,0.933 L56.215,0.933 L57.600,0.933 L75.779,0.933 C79.126,0.933 82.026,1.505 84.479,2.647 C86.931,3.792 88.836,5.420 90.193,7.534 C91.548,9.649 92.227,12.193 92.227,15.163 C92.227,18.592 91.361,21.494 89.630,23.865 C88.236,25.775 86.327,27.223 83.922,28.224 C87.188,29.217 89.798,30.892 91.751,33.252 ZM86.167,24.036 C88.360,21.893 89.457,18.993 89.457,15.335 C89.457,11.621 88.215,8.706 85.734,6.591 C83.252,4.477 79.934,3.419 75.779,3.419 L57.600,3.419 L57.600,27.251 L77.164,27.251 C80.973,27.251 83.973,26.179 86.167,24.036 ZM77.597,29.565 L57.600,29.565 L57.600,56.397 L76.558,56.397 C81.290,56.397 85.085,55.169 87.942,52.711 C90.799,50.254 92.227,46.997 92.227,42.938 C92.227,40.311 91.606,37.996 90.366,35.995 C89.124,33.995 87.408,32.424 85.215,31.280 C83.021,30.137 80.482,29.565 77.597,29.565 ZM39.335,58.883 L3.237,29.484 L3.237,58.883 L0.467,58.883 L0.467,0.933 L3.237,0.933 L3.237,27.979 L38.556,0.933 L42.798,0.933 L6.457,28.692 L43.663,58.883 L39.335,58.883 Z"/>
</g>
</svg>